<svg version="1.0" xmlns="http://www.w3.org/2000/svg"
 width="300.000000pt" height="256.000000pt" viewBox="0 0 300.000000 256.000000"
 preserveAspectRatio="xMidYMid meet">
<metadata>
Created by potrace 1.10, written by Peter Selinger 2001-2011
</metadata>
<g transform="translate(0.000000,256.000000) scale(0.100000,-0.100000)"
fill="#000000" stroke="none">
<path d="M706 1958 c-53 -28 -135 -113 -158 -165 -10 -23 -21 -77 -25 -120 -3
-43 -12 -87 -19 -98 -18 -25 -18 -87 0 -130 20 -46 99 -159 150 -213 23 -24
66 -59 97 -78 76 -46 238 -112 291 -119 43 -5 43 -5 14 9 -18 8 -24 15 -16 18
8 2 -24 19 -71 38 -100 40 -166 77 -234 132 l-50 40 51 -49 c27 -26 78 -63
112 -81 60 -32 81 -49 45 -35 -80 31 -263 171 -263 202 0 18 -68 121 -72 109
-7 -19 -38 80 -38 120 0 36 22 41 29 6 4 -21 58 -99 69 -99 4 0 41 -28 83 -61
76 -60 193 -118 261 -130 76 -13 75 -12 70 -43 -5 -36 25 -130 44 -138 8 -3
14 -11 14 -19 0 -8 4 -14 9 -14 5 0 34 -35 66 -77 67 -91 89 -157 82 -250 -3
-44 0 -68 9 -82 9 -12 12 -30 8 -46 -10 -39 18 -62 110 -91 92 -29 148 -28
238 7 79 30 93 43 96 92 18 282 10 254 109 377 48 61 58 68 82 64 44 -9 216
64 327 138 79 52 168 149 204 222 38 76 49 148 29 172 -9 11 -14 43 -14 93 0
62 -5 86 -27 131 -38 77 -80 125 -133 150 -25 12 -47 26 -51 31 -8 14 -36 11
-56 -8 -17 -15 -56 -17 -366 -20 -191 -1 -360 -3 -377 -3 -16 0 -103 1 -191 2
-148 3 -164 1 -183 -16 -21 -19 -22 -19 -59 -1 -22 11 -66 19 -111 21 -48 2
-79 8 -91 19 -22 20 -47 18 -94 -7z m84 -12 c0 -8 -11 -17 -24 -20 -34 -8 -93
-78 -106 -126 -12 -46 -6 -87 20 -141 18 -34 50 -69 50 -54 0 4 26 -17 58 -47
58 -53 168 -108 230 -114 15 -1 70 -12 122 -23 156 -34 327 -45 476 -31 71 7
152 13 181 15 140 9 334 96 433 195 70 70 98 121 82 153 -18 37 -25 80 -11 71
7 -4 3 8 -7 26 -10 17 -29 36 -41 41 -13 5 -23 13 -23 19 0 6 -11 15 -25 20
-24 9 -35 30 -16 30 15 0 124 -75 146 -100 11 -13 14 -20 7 -16 -8 5 0 -10 16
-33 118 -162 15 -349 -255 -465 -43 -18 -110 -41 -149 -51 l-71 -19 5 -47 c6
-61 -36 -155 -112 -248 -29 -36 -60 -78 -69 -92 -22 -34 -32 -131 -19 -199 6
-30 8 -58 6 -61 -2 -3 -30 7 -63 24 -50 24 -63 27 -76 17 -19 -16 -20 -60 -1
-60 8 0 16 -5 18 -11 2 -7 28 -12 63 -13 60 -1 88 -19 35 -23 -16 -1 -41 -9
-54 -18 -14 -9 -49 -22 -78 -29 -58 -13 -113 -5 -175 27 -18 9 -42 16 -55 14
-15 -1 -23 4 -26 17 -3 16 2 18 49 14 63 -4 88 14 87 61 -1 17 -3 31 -5 31
-15 0 -103 -44 -103 -51 0 -5 -5 -9 -11 -9 -6 0 -9 7 -6 14 4 10 1 13 -9 9
-11 -4 -14 5 -13 43 1 42 2 45 8 19 l7 -30 5 37 c3 20 2 35 -2 33 -3 -3 -9 17
-12 43 -4 26 -10 58 -13 72 -7 23 -6 24 9 11 15 -12 17 -12 11 2 -3 9 -21 28
-40 42 -19 14 -34 30 -34 35 0 5 -20 40 -45 77 -25 37 -45 72 -45 77 0 6 -4 5
-9 -3 -13 -20 -45 71 -37 106 16 67 17 66 -68 91 -43 12 -112 38 -154 57 -83
39 -86 40 -76 24 4 -7 -8 -3 -26 7 -36 21 -121 101 -118 112 3 13 -44 82 -52
77 -5 -3 -14 11 -19 32 -14 49 -14 66 1 57 8 -5 10 4 6 33 -8 56 32 123 119
202 65 59 103 76 103 47z m182 -49 c7 -8 26 -17 41 -20 15 -4 26 -11 25 -15
-1 -4 4 -26 11 -50 10 -38 10 -48 -6 -79 -29 -58 -63 -77 -141 -79 -37 0 -73
-3 -81 -5 -7 -2 -16 1 -18 8 -2 7 7 15 21 19 14 3 26 13 26 21 0 8 -4 11 -10
8 -6 -4 -10 27 -10 84 0 65 -3 90 -12 89 -6 -2 -14 5 -16 15 -3 15 6 17 77 17
53 0 84 -4 93 -13z m295 -24 c-7 -44 -16 -99 -23 -131 -5 -27 -24 -20 -24 9 0
13 -7 19 -24 19 -13 0 -31 3 -40 6 -13 5 -16 -2 -16 -44 l0 -50 48 -4 c26 -2
50 0 54 6 23 36 36 48 46 42 7 -4 6 -16 -6 -36 -18 -32 -44 -37 -148 -31 -23
1 -45 -2 -49 -8 -3 -6 2 -11 12 -11 16 0 18 -7 15 -56 -4 -55 -3 -56 18 -44
28 15 50 6 44 -17 -4 -15 -13 -18 -41 -15 -21 3 -38 0 -43 -8 -4 -7 -13 -9
-19 -6 -14 9 -15 116 -1 116 6 0 6 10 -1 27 -10 27 0 42 29 43 15 0 16 16 2
25 -12 7 -9 43 5 64 5 10 4 16 -3 19 -7 2 -12 23 -12 48 0 29 -4 43 -12 42 -6
-2 -14 5 -16 15 -3 15 7 17 103 17 l107 0 -5 -37z m148 27 c3 -5 -3 -10 -14
-10 -27 0 -26 -14 0 -52 l22 -30 20 32 c16 25 17 34 7 40 -38 24 11 29 262 27
l261 -2 2 -30 c1 -16 -5 -40 -13 -52 -7 -12 -12 -37 -10 -55 2 -24 -1 -33 -12
-33 -8 0 -14 7 -14 17 1 12 -9 17 -37 20 l-39 4 0 -51 0 -50 42 0 c36 0 46 5
61 28 11 15 23 27 27 27 14 0 21 -18 10 -25 -5 -3 -10 -15 -10 -26 0 -17 -8
-19 -95 -19 -57 0 -95 -4 -95 -10 0 -5 12 -10 26 -10 37 0 25 -24 -14 -28 -38
-4 -43 -22 -6 -22 31 0 28 -23 -4 -28 -12 -2 -22 -10 -22 -18 0 -17 1 -17 34
-4 27 10 40 1 31 -22 -4 -9 -18 -12 -45 -10 -28 3 -40 0 -40 -9 0 -9 -3 -10
-11 -2 -8 8 -8 21 1 48 7 20 10 48 7 62 -3 19 2 32 21 49 14 13 29 24 34 24 5
0 7 45 6 99 -2 55 -5 97 -7 95 -2 -2 -10 1 -18 7 -10 9 -13 4 -13 -25 0 -20
-5 -36 -10 -36 -12 0 -30 41 -23 53 2 4 -10 7 -26 7 l-31 0 0 -105 c0 -94 2
-105 18 -102 9 1 17 -2 17 -8 0 -6 -18 -9 -41 -7 -23 2 -45 -1 -49 -7 -3 -6 0
-11 8 -11 9 0 12 -9 9 -31 -4 -29 -3 -30 17 -18 13 9 19 20 15 31 -4 13 0 18
13 18 16 0 18 -9 18 -66 0 -52 -4 -67 -18 -75 -22 -13 -33 11 -17 40 9 18 8
21 -10 21 -15 0 -20 -6 -20 -29 0 -18 -6 -31 -17 -35 -27 -11 -35 7 -24 56 6
25 8 61 6 81 -4 32 -2 37 20 43 24 6 35 24 15 24 -15 0 -13 167 3 173 6 3 -5
6 -25 6 -29 1 -38 -3 -40 -16 0 -10 -2 -22 -3 -28 -2 -5 -3 -14 -4 -19 0 -5
-8 -3 -16 4 -11 9 -14 22 -9 43 5 27 4 28 -16 22 -24 -8 -61 -45 -80 -81 -10
-18 -7 -29 25 -73 20 -28 40 -49 43 -47 4 2 13 -2 20 -10 11 -12 6 -14 -31
-14 -23 0 -47 -4 -53 -10 -5 -5 -15 -6 -24 0 -11 7 -9 11 12 21 l27 12 -27 39
-26 40 -33 -38 c-39 -46 -40 -54 -11 -54 12 0 18 -3 14 -7 -4 -5 -24 -8 -44
-8 -31 0 -38 -4 -40 -22 -3 -19 -10 -23 -39 -23 -23 0 -33 -4 -30 -12 2 -8 16
-12 32 -10 26 4 28 2 16 -12 -7 -9 -22 -16 -33 -16 -12 0 -18 -5 -15 -12 2 -7
8 -12 13 -11 5 0 18 3 29 5 12 2 21 -3 23 -14 3 -15 -4 -18 -41 -18 -27 0 -47
-5 -50 -12 -3 -9 -7 -6 -13 6 -5 13 -3 21 4 24 7 2 12 8 12 13 0 6 -4 7 -10 4
-6 -4 -10 8 -10 29 0 20 4 36 10 36 5 0 7 7 4 15 -5 12 2 15 31 15 40 0 44 3
123 98 l43 51 -26 36 c-15 19 -34 35 -41 35 -8 0 -14 5 -14 10 0 6 -5 9 -12 8
-6 -2 -14 5 -16 15 -3 15 5 17 57 17 33 0 63 -4 66 -10z m735 -5 c7 -8 19 -15
26 -15 10 0 14 -13 14 -40 0 -35 -4 -42 -27 -52 -16 -7 -30 -13 -32 -14 -8 -6
72 -93 80 -88 5 3 9 0 9 -5 0 -6 8 -11 17 -11 30 0 0 -17 -40 -23 -31 -5 -38
-3 -33 8 6 16 -69 115 -88 115 -3 0 -6 -23 -6 -51 0 -27 4 -48 9 -45 14 9 41
-4 41 -19 0 -7 13 -18 29 -25 19 -8 28 -17 24 -26 -6 -16 -140 -94 -160 -94
-14 0 -18 67 -5 86 4 7 25 15 47 18 47 8 66 22 41 32 -21 8 -65 10 -85 3 -7
-2 -15 1 -18 8 -2 6 6 14 18 18 21 7 21 10 14 97 -5 71 -4 93 7 99 9 6 4 9
-14 9 -27 0 -35 9 -21 23 3 4 37 7 73 7 48 0 71 -4 80 -15z m-1360 -41 c14
-35 12 -118 -2 -167 -11 -36 -10 -41 10 -58 19 -15 35 -17 98 -13 42 3 88 10
102 15 13 5 26 8 27 7 1 -2 5 -38 7 -80 l5 -78 -26 6 c-99 24 -260 135 -296
205 -28 54 -18 116 28 167 26 28 35 28 47 -4z m1470 -52 c14 -53 12 -82 -6
-89 -11 -4 -23 2 -34 18 -16 21 -17 26 -4 51 8 15 14 36 14 48 0 31 18 15 30
-28z m-926 5 c13 -20 -2 -50 -28 -55 -12 -3 -16 4 -16 31 0 50 21 61 44 24z
m201 3 c4 -6 19 -9 33 -8 25 3 27 0 30 -37 2 -23 -3 -48 -11 -59 -14 -19 -16
-19 -46 15 -33 36 -47 71 -36 88 8 14 22 14 30 1z m223 -54 c2 -21 0 -46 -3
-55 -6 -14 -8 -14 -21 3 -14 20 -19 77 -7 90 15 14 28 -2 31 -38z m-353 -114
c6 -4 11 -20 13 -37 10 -94 70 -151 133 -125 22 9 33 10 37 2 4 -6 50 -12 105
-14 98 -3 128 -11 84 -21 -52 -13 -288 -28 -357 -22 -113 9 -240 26 -244 34
-2 3 42 7 97 9 163 6 172 6 174 17 1 6 -10 9 -24 8 -20 -2 -24 2 -20 17 7 28
-30 27 -54 -1 -30 -35 -37 -13 -16 53 23 73 46 99 72 80z m173 -11 c2 -7 -6
-15 -18 -18 -20 -5 -21 -11 -18 -62 3 -55 2 -57 -22 -56 -27 0 -29 9 -18 83 4
23 1 32 -8 32 -8 0 -14 -5 -14 -12 0 -9 -3 -9 -11 -1 -21 21 -2 42 43 46 55 4
61 3 66 -12z m372 1 c21 -10 24 -46 5 -62 -13 -11 -13 -15 5 -40 25 -35 25
-35 -5 -35 -25 0 -27 3 -29 39 -2 34 -26 31 -26 -4 0 -18 -4 -29 -10 -25 -5 3
-10 1 -10 -6 0 -7 -3 -9 -7 -5 -4 4 -7 38 -8 76 l0 70 35 -1 c19 0 42 -3 50
-7z m492 -77 c8 -8 -38 -130 -68 -181 -61 -104 -227 -221 -401 -284 -35 -13
-63 -27 -63 -31 0 -5 -4 -9 -10 -9 -16 0 -12 17 21 83 18 37 28 70 25 83 -5
19 -1 22 36 27 47 6 172 66 266 126 74 48 144 118 162 160 12 30 21 37 32 26z
m-1090 -1021 c17 -9 50 -22 72 -30 38 -12 38 -13 6 -7 -37 6 -120 39 -120 48
0 8 9 6 42 -11z"/>
<path d="M1484 1180 c0 -96 2 -136 3 -87 2 48 2 126 0 175 -1 48 -3 8 -3 -88z"/>
<path d="M1254 1207 c-7 -20 19 -92 34 -92 7 0 17 -7 22 -15 12 -19 83 -22 76
-3 -7 19 4 16 21 -4 10 -13 10 -9 -2 14 -9 20 -29 39 -50 47 -40 17 -46 27
-12 19 33 -9 17 3 -36 26 -37 16 -49 18 -53 8z"/>
<path d="M1670 1203 c-42 -18 -77 -48 -96 -85 -8 -15 -14 -28 -14 -30 0 -2 20
-3 45 -4 25 0 45 2 45 5 0 3 16 24 36 45 27 30 32 41 22 47 -11 8 -11 10 1 18
24 16 -3 18 -39 4z"/>
<path d="M1484 915 c0 -49 1 -71 3 -48 2 23 2 64 0 90 -2 26 -3 8 -3 -42z"/>
<path d="M880 1777 l0 -103 40 4 c32 3 46 12 72 44 18 23 27 43 21 46 -14 10
-23 52 -11 52 5 0 8 6 5 13 -2 6 -11 11 -20 9 -8 -1 -18 2 -22 8 -3 5 0 10 7
10 9 0 9 3 -2 10 -8 5 -32 10 -52 10 l-38 0 0 -103z m84 7 c7 -24 -16 -60 -32
-50 -13 8 -17 78 -5 90 9 8 29 -13 37 -40z"/>
<path d="M1140 1838 c0 -43 0 -43 37 -43 40 0 63 25 63 66 0 16 -8 19 -50 19
l-50 0 0 -42z"/>
<path d="M1845 1836 l0 -44 35 5 c38 6 71 38 62 62 -4 10 -1 12 8 6 9 -5 11
-4 6 3 -4 7 -31 12 -59 12 l-52 0 0 -44z"/>
<path d="M2070 1833 c0 -43 2 -48 23 -48 12 0 32 10 44 23 12 12 17 22 12 22
-6 0 -9 7 -5 15 3 8 1 15 -5 15 -6 0 -7 5 -4 10 4 6 -8 10 -29 10 l-36 0 0
-47z"/>
<path d="M1375 1579 c-4 -11 -4 -23 -2 -26 9 -8 27 7 27 22 0 23 -18 27 -25 4z"/>
</g>
</svg>